<svg xmlns="http://www.w3.org/2000/svg" viewBox="0 0 24 24"><title>music</title><g id="music"><path d="M23,2a1,1,0,0,0-1.14-1C7.13,3.11,7.16,2.82,7,3.87c0,.3,0,2.66,0,11.41C3.28,14-.91,19.41,1.88,22.2,4.24,24.58,9,21.83,9,18.2V9.87L21,8.15v5.13a4.43,4.43,0,0,0-4.49,1.32c-2.74,2.73-1.51,6.49,1.6,6.49a4.78,4.78,0,0,0,3.38-1.52A4.6,4.6,0,0,0,23,16.2ZM4.12,21.09c-1.34.08-1.55-1.72-.2-3.08.76-.75,2.13-1.28,2.79-.63C7.72,18.39,6,21.09,4.12,21.09ZM9,7.85v-3L21,3.15v3ZM20.07,18.16c-.8.79-2.13,1.28-2.78.63-1-1,.65-3.7,2.6-3.7C21.4,15.09,21.28,17,20.07,18.16Z"/></g></svg>